<?xml version="1.0" encoding="UTF-8"?>
<!DOCTYPE svg PUBLIC "-//W3C//DTD SVG 1.1//EN" "http://www.w3.org/Graphics/SVG/1.1/DTD/svg11.dtd">
<!-- Creator: CorelDRAW -->
<svg xmlns="http://www.w3.org/2000/svg" xml:space="preserve" width="270.385mm" height="176.685mm" version="1.1" style="shape-rendering:geometricPrecision; text-rendering:geometricPrecision; image-rendering:optimizeQuality; fill-rule:evenodd; clip-rule:evenodd"
viewBox="0 0 27090.48 17702.46"
 xmlns:xlink="http://www.w3.org/1999/xlink"
 xmlns:xodm="http://www.corel.com/coreldraw/odm/2003">
 <defs>
  <style type="text/css">
   <![CDATA[
    .fil0 {fill:black}
    .fil5 {fill:white}
    .fil1 {fill:#84C737;fill-rule:nonzero}
    .fil4 {fill:#D6AB5C;fill-rule:nonzero}
    .fil3 {fill:#ED1D24;fill-rule:nonzero}
    .fil2 {fill:white;fill-rule:nonzero}
   ]]>
  </style>
 </defs>
 <g id="Camada_x0020_1">
  <metadata id="CorelCorpID_0Corel-Layer"/>
  <path class="fil0" d="M27090.48 8851.39c0,4888.51 -6064.39,8851.08 -13545.37,8851.08 -7480.9,0 -13545.1,-3962.56 -13545.1,-8851.08 0,-4888.79 6064.21,-8851.39 13545.1,-8851.39 7480.98,0 13545.37,3962.59 13545.37,8851.39z"/>
  <path class="fil1" d="M9606.04 16757.45c737.66,144.04 1501.02,248.2 2285.27,308.46l276.01 -1989.61 -2461.39 634.07 -99.88 1047.08z"/>
  <path class="fil2" d="M12234.57 17088.96c411.63,24.88 829.13,37.96 1251.41,37.96 356.88,0 710.19,-8.81 1060.25,-26.79l280.09 -2023.78 -2461.12 634.03 -130.63 1378.59z"/>
  <path class="fil3" d="M14894.68 17079.64c807.93,-54.68 1595.29,-155.84 2354.73,-298.78l236.32 -1704.54 -2460.97 634.07 -130.08 1369.26z"/>
  <path class="fil4" d="M13467.6 586.92c-7059.16,0 -12802.04,3716.84 -12802.04,8285.86 0,3512.54 3402.4,6625.61 8495.1,7803.43l27.81 -299.41c-4946.47,-1149.4 -8249.45,-4140.84 -8249.45,-7504.01 0,-4403.18 5620.45,-7985.28 12528.57,-7985.28 6908.44,0 12528.77,3582.1 12528.77,7985.28 0,3361.9 -3307.71,6357.05 -8256.42,7505.95l-43.29 315.21c5136.07,-1164.07 8573.07,-4290.49 8573.07,-7821.17 0,-4569.02 -5742.88,-8285.86 -12802.14,-8285.86z"/>
  <path class="fil5" d="M13345.07 2636.12c0,0 -139.37,-92.4 -486.74,70.09 -222.75,104.51 -349.25,236.7 -349.25,236.7l-175.24 1184.5 1011.23 -1491.3z"/>
  <path class="fil5" d="M14134.03 4406.91c0,0 127.24,-147.46 162.23,-428.21 37.86,-304.04 -146.54,-395.66 -146.54,-395.66l-1471.93 968.57 1456.24 -144.7z"/>
  <path class="fil5" d="M14651.69 2989.8c0,0 -67.83,-230.59 -379.93,-363.14 -260.46,-110.38 -554.54,-90.16 -554.54,-90.16l-1433.47 1987.26 2367.94 -1533.96z"/>
  <path class="fil2" d="M4422.31 12281.16c27.57,-2.3 52.56,-6.75 73.59,-13.51 21.66,-6.96 39.48,-16.82 54.11,-30.29 14.49,-13.19 25.8,-29.41 32.62,-50.16 8.06,-20.19 11.8,-44.82 11.8,-73.55 0,-25.03 -3.75,-47.97 -11.8,-67.62 -7.31,-19.73 -18.13,-36.44 -31.7,-50.41 -13.44,-13.08 -29.49,-23.75 -48.46,-30.36 -19.09,-7.1 -40.08,-10.85 -62.49,-10.85 -15.66,0 -27.36,1.13 -35.28,3.47 -8.13,1.94 -12.01,9.33 -12.01,21.94l0 593.95c0,8.81 -4.14,14.32 -12.72,15.94 -5.66,1.34 -12.16,2.51 -19.34,3.4 -7.07,1.16 -14.25,1.27 -21.24,2.47 -6.5,0.24 -12.93,0.24 -18.39,0.24 -5.9,0 -10.25,0.82 -12.96,0.82 -8.03,0 -12.26,-4.42 -12.26,-14.39l0 -572.67c0,-19.69 -3.89,-32.27 -11.56,-38.74 -7.56,-6.75 -17.21,-9.72 -29.59,-9.72 -7.2,0 -14.74,1.06 -22.9,2.08l-3.04 -31.35c30.4,-6.22 63.2,-11.27 99.28,-16.61 35.74,-4.77 76.04,-7.1 120.74,-7.1 20.61,0 40.65,0.67 61.29,3.36 20.75,1.94 40.02,5.44 59.59,10.92 17.88,5.41 35.46,12.69 51.4,20.82 16.29,9.48 29.9,20.36 41.95,34.08 12.12,13.86 21.49,30.22 27.96,48.98 6.46,18.67 10.03,41.04 10.03,66.07 0,39.38 -7.66,73.59 -22.9,100.69 -15.41,27.71 -35.84,50.41 -60.93,67.62 -25.24,17.11 -54.26,29.94 -87.63,38.35 -32.9,7.88 -67.08,13.36 -102.36,15.02l-4.81 -32.9z"/>
  <path class="fil2" d="M5823.47 11933.43c19.12,-3.26 36.79,-6.72 53.76,-8.95 16.96,-3.25 31.49,-5.3 44.43,-6.5 13.26,-1.76 23.83,-3.08 33.15,-3.75 8.73,-0.77 13.93,-0.77 16.72,-0.77 10.99,0 16.43,5.72 16.43,18.42l0 641.9c0,8.81 -4,14.29 -12.61,15.95 -5.94,1.3 -12.51,2.5 -19.34,3.39 -7.21,1.17 -14.42,1.27 -21.1,2.47 -6.5,0.25 -13.26,0.25 -18.88,0.25 -5.05,0 -9.54,0.81 -12.61,0.81 -8.38,0 -12.37,-4.42 -12.37,-14.42l0 -566.7c0,-10.36 -0.95,-19.3 -3.33,-26.4 -1.16,-6.36 -4.24,-11 -8.03,-15.31 -3.67,-3.78 -7.99,-6.22 -12.96,-7.49 -5.2,-2.22 -10.85,-2.73 -17.21,-2.73 -7.42,0 -15.1,0.5 -23.01,1.66l-3.04 -31.84z"/>
  <path class="fil2" d="M7354.92 12588.08l-37.61 0 -33.61 0c-11.31,0.25 -24.28,0.25 -39.27,1.03 -14.39,0.63 -32.76,1.02 -54.68,1.02 -1.69,0 -3.22,-1.02 -4.17,-3.5 -1.41,-5.09 -2.73,-10.32 -3.64,-16.05 -0.81,-6.25 -1.27,-10.64 -1.27,-12.96 0,-1.56 0.46,-3.65 1.62,-5.17l361.76 -580.58 -188.32 0c-22.51,0 -41.36,0.53 -55.67,2.51 -14.85,1.41 -27.08,5.44 -36.52,12.79 -10.14,7.52 -18.31,19.19 -24.32,35.8 -7.06,15.77 -12.72,38.21 -18.49,66.91l-26.19 -2.97 0 -12.12c0.35,-6.75 0.57,-15.3 1.66,-24.78 0.21,-9.3 0.95,-19.94 1.06,-31.74 0.46,-11.13 1.16,-22.65 1.51,-33.4 1.31,-10.49 1.77,-20.74 2.47,-30.47 0.25,-9.08 1.66,-16.57 2.37,-21.24 0,-6.46 2.83,-8.66 8.03,-8.66 31.59,0.21 62.03,0.63 91.26,1.16 29.24,0.39 55.89,1.03 79.95,1.03l122.15 0 35.28 0c9.86,0 20.11,-0.64 31,-1.03 11.31,0 23.32,-0.53 37.25,-0.53 13.79,-0.42 31.81,-0.42 52.59,-0.63 2.12,0 4.14,0.63 4.49,2.19 1.73,4.24 2.8,9.58 3.86,15.3 1.2,5.41 1.55,9.44 1.55,11.52 0,-1.3 -0.35,0.11 -1.06,3.61l-366.1 584.93 202.67 0c22.3,0 41.64,-0.88 56.13,-2.72 14.74,-1.94 27.6,-6.36 37.18,-15.17 9.76,-8.13 18.46,-20.32 24.82,-36.37 6.39,-16.75 12.89,-39.66 19.02,-69.34l25.8 3.01c0,1.94 0,6.85 -0.32,13.22 -0.74,7.35 -0.95,15.9 -1.55,25.63 -0.25,9.72 -1.31,20.78 -1.98,32.9 -0.35,11.27 -1.09,23.58 -2.15,34.61 -0.21,11.52 -1.06,22.44 -1.97,31.74 -0.6,9.33 -1.7,16.75 -2.26,21.98 -0.32,2.65 -1.62,4.45 -2.47,6.29 -1.27,1.9 -3.15,2.29 -6.11,2.29 -31.14,-0.39 -61.93,-1.02 -91.27,-1.8 -29.02,-0.25 -56.03,-0.25 -80.06,-0.25l-124.41 0z"/>
  <path class="fil2" d="M8984.48 12588.08l-37.26 0 -33.97 0c-11.41,0.25 -24.6,0.25 -39.38,1.03 -14.39,0.63 -32.41,1.02 -54.36,1.02 -2.18,0 -3.53,-1.02 -4.2,-3.5 -1.31,-5.09 -2.47,-10.32 -3.68,-16.05 -0.96,-6.25 -1.41,-10.64 -1.41,-12.96 0,-1.56 0.81,-3.65 2.01,-5.17l361.26 -580.58 -187.86 0c-22.51,0 -41.6,0.53 -56.1,2.51 -14.6,1.41 -27,5.44 -36.4,12.79 -9.94,7.52 -18.32,19.19 -24.82,35.8 -6,15.77 -12.26,38.21 -18.12,66.91l-26.2 -2.97c0,-1.02 0,-4.63 0.6,-12.12 0,-6.75 0,-15.3 0.71,-24.78 0.56,-9.3 1.27,-19.94 1.52,-31.74 1.06,-11.13 1.3,-22.65 1.87,-33.4 0.74,-10.49 1.55,-20.74 2.11,-30.47 0.96,-9.08 1.31,-16.57 1.8,-21.24 0.57,-6.46 3.19,-8.66 8.84,-8.66 31.35,0.21 61.68,0.63 90.91,1.16 29.37,0.39 55.77,1.03 80.26,1.03l122.05 0 34.89 0c10.18,0 20.43,-0.64 31.63,-1.03 10.85,0 23,-0.53 36.76,-0.53 13.93,-0.42 31.98,-0.42 52.98,-0.63 1.87,0 3.33,0.63 4.24,2.19 1.66,4.24 3.15,9.58 4.25,15.3 0.7,5.41 1.27,9.44 1.27,11.52 0,-1.3 -0.22,0.11 -1.27,3.61l-366.11 584.93 202.71 0c22.72,0 41.6,-0.88 56.23,-2.72 14.74,-1.94 27.57,-6.36 37.47,-15.17 9.54,-8.13 18.16,-20.32 24.53,-36.37 6.5,-16.75 13.12,-39.66 18.77,-69.34l26.41 3.01c0,1.94 -0.25,6.85 -0.82,13.22 -0.28,7.35 -0.84,15.9 -1.3,25.63 -0.46,9.72 -0.95,20.78 -2.12,32.9 -0.49,11.27 -1.16,23.58 -2.11,34.61 -0.5,11.52 -1.2,22.44 -1.87,31.74 -1.1,9.33 -1.87,16.75 -2.62,21.98 -0.11,2.65 -0.82,4.45 -2.02,6.29 -1.41,1.9 -3.07,2.29 -6,2.29 -31.74,-0.39 -62.03,-1.02 -91.73,-1.8 -29.02,-0.25 -55.46,-0.25 -79.84,-0.25l-124.52 0z"/>
  <path class="fil2" d="M10594.74 12301.11l0 0 195.5 0 -99.28 -284.15 -96.21 284.15zm-16.43 48.42l-80.52 237.53c-0.95,4.52 -3.89,6.43 -9.08,7.35 -6.57,1.2 -13.4,1.2 -21.21,1.44 -8.24,0 -17,0.78 -27.71,0.78 -5.19,0 -7.99,-1.45 -7.99,-5.59 0,-1.3 0.21,-2.72 0.21,-2.97l238.76 -628.24 -10.85 -33.15c-0.6,-3.15 -0.81,-5.44 -0.81,-6.36 0,-6.07 3.19,-9.58 9.9,-10.35 5.3,-1.52 11.91,-1.8 19.34,-2.76 7.31,-1.77 14.63,-2.05 21.84,-3.19 7.06,-0.67 13.19,-1.09 19.33,-1.59 5.66,-0.49 10.04,-0.49 12.58,-0.49 7.21,0 12.19,3.96 15.13,12.93l232.51 656.86c0.7,3.26 2.01,5.45 2.01,6.86 0,6.07 -3.89,9.72 -10.85,11.13 -6.36,1.3 -13.33,2.47 -20.96,3.4 -7.7,1.16 -15.59,1.27 -22.76,2.47 -7.56,0.24 -14.53,0.24 -20.99,0.24 -5.91,0 -11.1,0.78 -13.69,0.78 -5.79,0 -9.54,-2.33 -11.45,-8.56l-85 -243.32 -227.73 4.77z"/>
  <path class="fil2" d="M12319.56 12245.64c26.55,-1.56 50.13,-5.83 70.66,-12.44 20.36,-6.71 37.47,-15.94 51.54,-28.31 13.65,-12.61 23.79,-28.02 30.75,-47.08 7.07,-19.41 10.74,-42.24 10.74,-69.17 0,-22.93 -3.67,-42.59 -10.74,-59.59 -7.77,-16.47 -19.12,-29.69 -32.3,-40.82 -13.83,-10.89 -29.63,-19.3 -47.86,-24.61 -18.53,-5.44 -38.31,-7.77 -59.45,-7.77 -13.89,0 -24.18,1.03 -31.38,3.36 -6.82,2.33 -10.61,9.48 -10.61,21.39l0 593.2c0,8.81 -3.75,14.29 -12.36,15.95 -5.66,1.3 -12.34,2.5 -18.99,3.39 -7.42,1.17 -14.6,1.27 -21.1,2.47 -7.06,0.25 -13.33,0.25 -18.88,0.25 -6,0 -10,0.81 -12.82,0.81 -8.74,0 -12.3,-4.42 -12.3,-14.42l0 -574.09c0,-19.3 -3.5,-31.7 -11.31,-38.09 -7.99,-6.44 -18.06,-9.3 -29.48,-9.3 -7.28,0 -15.09,0.39 -23.43,2.04l-2.83 -31.84c34.43,-6.22 70.38,-11.77 107.63,-16.05 37.5,-4.42 75.35,-6.75 114.48,-6.75 16.51,0 34.22,0.67 52.39,2.33 18.52,1.31 36.79,4.42 54.35,8.7 17.71,4 34.79,9.97 50.59,17.21 16.01,6.85 30.18,17.21 42.06,29.27 12.29,11.66 21.8,26.72 28.55,43.15 7.31,17.5 10.99,37.22 10.99,60.38 0,25.17 -3.68,46.9 -10.74,65.68 -6.5,19.44 -15.8,35.52 -27.71,50.44 -11.91,14.1 -26.09,26.65 -41.85,36.86 -16.29,10.39 -33.5,19.23 -51.89,26.19l0 3.79c8.84,2.04 18.13,4.88 27.82,8.55 10.49,3.86 20.5,10.5 29.94,17.11 9.19,8.17 18.05,17.31 26.4,28.77 8.49,11.24 14.85,25.63 19.94,42.21l38.24 131.52c5.54,17.59 9.75,31.7 14.24,42.2 4.25,10.74 9.2,18.66 13.69,24.6 5.09,5.37 10.85,9.47 16.75,10.78 6.71,2.08 14,2.87 23.82,2.87l1.38 29.37c-6.47,2.12 -14.25,3.01 -22.02,4.28 -8.03,1.45 -15.09,2.37 -22.86,3.79 -8.03,0.38 -14.53,1.3 -20.33,1.65 -6.11,0.67 -10.85,1.06 -14.14,1.06 -11.31,0 -20.71,-1.41 -29.48,-5.05 -9.05,-2.33 -16.86,-7.53 -23.58,-14.28 -7.07,-6.58 -13.22,-16.19 -18.38,-28.24 -5.8,-11.63 -10.15,-25.73 -14.64,-43.65l-37.5 -139.55c-4.95,-20.32 -11.41,-36.12 -18.63,-47.39 -7.21,-12.55 -16.26,-21.1 -27.25,-27.61 -11.27,-5.79 -24.39,-9.82 -39.84,-12.15 -15.55,-2.08 -33.71,-3.36 -55.88,-4.39l-4.39 -32.93z"/>
  <path class="fil2" d="M13781.92 11933.43c18.99,-3.26 36.09,-6.72 53.19,-8.95 16.97,-3.25 32.17,-5.3 44.79,-6.5 13.15,-1.76 23.72,-3.08 33.01,-3.75 8.17,-0.77 13.72,-0.77 16.54,-0.77 10.82,0 16.54,5.72 16.54,18.42l0 641.9c0,8.81 -4.28,14.29 -12.44,15.95 -6.11,1.3 -12.47,2.5 -19.69,3.39 -6.71,1.17 -14.39,1.27 -20.82,2.47 -6.64,0.25 -13.15,0.25 -18.8,0.25 -6.15,0 -10.01,0.81 -12.83,0.81 -8.24,0 -12.86,-4.42 -12.86,-14.42l0 -566.7c0,-10.36 -0.71,-19.3 -2.58,-26.4 -1.44,-6.36 -4.7,-11 -8.76,-15.31 -3.01,-3.78 -7.89,-6.22 -12.72,-7.49 -5.06,-2.22 -10.36,-2.73 -16.51,-2.73 -7.77,0 -15.3,0.5 -23.58,1.66l-2.47 -31.84z"/>
  <path class="fil2" d="M15293.57 12301.11l0 0 195.28 0 -98.83 -284.15 -96.46 284.15zm-16.51 48.42l-80.51 237.53c-1.52,4.52 -4.49,6.43 -9.44,7.35 -5.65,1.2 -12.83,1.2 -20.89,1.44 -8.34,0 -17.32,0.78 -26.97,0.78 -5.9,0 -8.73,-1.45 -8.73,-5.59 0,-1.3 0.25,-2.72 0.25,-2.97l238.72 -628.24 -10.78 -33.15c-0.63,-3.15 -0.77,-5.44 -0.77,-6.36 0,-6.07 3.08,-9.58 9.58,-10.35 5.44,-1.52 11.94,-1.8 19.58,-2.76 7.67,-1.77 14.64,-2.05 21.49,-3.19 7.28,-0.67 13.05,-1.09 19.3,-1.59 6.29,-0.49 10.25,-0.49 13.26,-0.49 6.93,0 11.87,3.96 14.95,12.93l232.9 656.86c0.7,3.26 1.41,5.45 1.41,6.86 0,6.07 -3.57,9.72 -10.74,11.13 -6.26,1.3 -13.44,2.47 -21.35,3.4 -7.77,1.16 -14.95,1.27 -22.76,2.47 -7.38,0.24 -14.49,0.24 -20.75,0.24 -6.39,0 -10.25,0.78 -13.47,0.78 -6.47,0 -9.65,-2.33 -11.66,-8.56l-85.07 -243.32 -227.53 4.77z"/>
  <path class="fil2" d="M22978.13 10410.36l0 0c-218.93,148.06 -449.34,220.48 -703.45,220.48 -207.76,0 -412.12,-49.19 -608.05,-145.06 -197.3,-96.27 -367.46,-230.13 -505.65,-397.74 -316.49,-381.94 -470.38,-817.9 -470.38,-1333.27 0,-506.54 151.07,-927.22 448.32,-1250.46 280.33,-301.99 609.89,-449.45 1008.77,-449.45 508.21,7.38 904.29,239.08 1210.76,709.1 226.24,349.11 340.73,759.44 340.73,1217.27 0,633.82 -235.58,1101.37 -721.05,1429.13zm910.08 -2554.81c-142.29,-311.19 -345.25,-567.62 -603.45,-763.47 -329,-247.75 -697.51,-373.4 -1094.87,-373.4l-0.7 0 -0.36 0c-298.87,5.16 -577.05,75.28 -826.1,207.41 -305.32,162.73 -555,396.3 -741.69,694.29 -234.37,375.2 -353.49,789.81 -353.49,1231.05 0,319.74 65.43,629.9 195.54,923.05 109.71,253.08 261.02,473.81 450.51,656.48 361.3,357.56 789.33,538.66 1273.21,538.66 350.66,0 680.62,-99.74 981.3,-297.71 223.32,-147.92 415.03,-340.2 569.87,-573.03 241.73,-366.35 364.38,-780.33 364.38,-1230.1 0,-362.65 -71.96,-703.48 -214.16,-1013.24z"/>
  <path class="fil2" d="M19249.72 9313.68l0 0c-96.46,243.18 -241.27,440.37 -430.16,586.52 -201.12,156.37 -426.16,235.12 -668.45,235.12 -402.09,0 -728.13,-185.95 -996.82,-567.61 -205.32,-295.99 -309.66,-649.45 -309.66,-1050.13 0,-587.55 199.63,-1006.81 609.72,-1281.98 183.47,-122.83 380.67,-185.25 585.81,-185.25 196.81,2.19 397.56,63.05 596.78,180.44 149.02,85.67 273.08,193.2 369.19,319.52 238.4,303.9 359.6,683.51 359.6,1129.09 0,226.17 -39.13,440.04 -116,634.28zm-316.59 -2352.46c-254.1,-161.71 -531.11,-243.57 -822.21,-243.57 -256.26,0 -500.57,58.81 -724.34,175.18 -241.51,124.62 -446.91,305.07 -611.69,535.31 -241.19,340.62 -363.74,732.89 -363.74,1164.42 0,283.18 56.62,557.75 167.71,817.23 113.32,263.54 269.44,483 465.96,651.42 305.18,270.11 654.11,406.82 1037.67,406.82 126.96,0 248.56,-11.94 363.85,-36.69l-1684.64 1990.14 -82.39 101.01 124.03 0 425.18 0 26.08 0 16.86 -21.49 1911.35 -2389.79c159.38,-210.51 357.21,-488.83 474.16,-776.54 89.74,-220.87 135.06,-467.94 135.06,-735.22 0,-342.68 -76.81,-662.03 -227.84,-947.44 -151.28,-288.14 -363.53,-520.05 -631.06,-690.8z"/>
  <path class="fil2" d="M10261.03 9662.2l0 0c-83.95,207.79 -203.06,390.46 -354.34,542.8 -275.1,276.12 -605.26,416.26 -981.3,416.26 -248.76,0 -484.23,-64.25 -699.45,-190.3 -289.7,-169.84 -515.52,-438.25 -671.25,-797.93 -123.82,-291.39 -186.56,-589.21 -186.56,-885.23 0,-471.47 151.04,-871.94 449.74,-1189.59 288.13,-306.27 622.11,-455.28 1022.3,-455.53 230.06,4.03 445.45,57.26 640.28,157.39 262.19,138.28 474.59,347.88 632.09,623.33 187.29,326.87 282.19,695.45 282.19,1095.25 0,236.17 -44.89,466.39 -133.71,683.55zm-267.88 -2445.6c-326.18,-265.09 -701.26,-399.44 -1113.71,-399.44 -307.54,4.77 -588.05,77.58 -832.6,216.09 -285.1,159.84 -520.71,385.27 -698.15,669.02 -217.34,344.09 -328.4,733.29 -328.4,1157.85 0,541.89 174.04,1017.25 517.04,1413.82 363.42,419.63 815.99,632.05 1345.89,632.05 246.53,0 487.56,-52.59 715.6,-156.97 257.77,-116.99 484.73,-293.82 674.6,-523.79 313.16,-378.59 471.76,-832.96 471.76,-1352.18 0,-334.75 -65.46,-648.41 -195.38,-932.66 -129.93,-284.11 -316.74,-527.14 -556.66,-723.81z"/>
  <path class="fil2" d="M15541.58 9045.1c-100.7,-172.31 -232.9,-303.79 -394.82,-389.55 -164.71,-85.28 -354.9,-147.84 -580.83,-189.55 -291.81,-55.46 -605.82,-67.62 -845.42,-72.67 -113.78,-2.19 -227.46,-5.44 -341.23,-11.91l-11.2 -0.53c-61.54,-2.73 -125.37,-6.99 -185.25,-15.69 -76.32,-10.32 -146.44,-34.19 -210.23,-69.03 -153.65,-89.92 -228.51,-224.51 -228.51,-412.38 0,-198.88 77.93,-362.11 237.84,-498.16 230.52,-196.42 554.5,-296.06 963.06,-296.06 183.98,0 361.2,23.86 525.45,69.1 236.18,66.84 414.11,161.67 543.69,287.85 108.05,107.56 196.73,245.23 263.18,410.09l20.75 51.78 369.12 0 -42.45 -119.44c-131.38,-370.42 -357.98,-631.73 -675.07,-776.96 -291.14,-131.63 -615.75,-197.97 -964.55,-197.97 -478.05,0 -874.69,114.8 -1178.88,341.93 -272.01,203.91 -409.76,456.67 -409.76,749.72 0,294.21 123.25,513.04 366,648.41 185.96,107.7 478.51,122.33 682,123.75l67.58 0.63c201.26,1.45 409.52,2.47 610.34,15.2 496.29,37.96 844.83,173.09 1035.28,401.46 132.86,158.45 197.62,336.99 197.62,546.2 0,169.98 -40.12,316.91 -123.82,450.12 -80.05,131.73 -188.67,236.92 -321.82,313.23 -256.08,145.34 -551.36,219.6 -876.43,219.6 -327.09,0 -616.67,-83.45 -861.83,-247.56 -241.83,-162.24 -419.27,-390.4 -527.88,-678.14l-19.91 -53.62 -362.14 0 39.62 118.02c111.2,329.07 296.34,591.4 550.3,780.96 327.45,240.49 709.74,362.08 1135.77,362.08 245.5,0 486.14,-38.06 714.44,-113.71 230.52,-75.14 424.96,-180.51 577.09,-313.3 274.6,-237.56 413.96,-533.57 413.96,-878.87 0,-196.42 -50.8,-383.61 -151.03,-555.04z"/>
  <path class="fil2" d="M11360.47 6943.2c1.06,206.78 2.47,413.83 2.47,620.46 0,931.61 -18.06,1950.19 -54.5,3116.46l0 176.02 362.37 0 -2.94 -1346.35 11.66 -826.91c6.47,-435.32 12.97,-769.3 22.02,-1082.32 5.79,-212.61 11.8,-432.59 26.44,-652.05l6.81 -93.92 -374.94 0 0.6 88.61z"/>
  <path class="fil2" d="M6084.4 10603l0 0c-346.82,15.55 -712.78,30.43 -1068.89,30.43 -163.78,0 -377.2,-5.26 -568.46,-51.25 -391.7,-90.94 -706.91,-321.33 -937.19,-685.35 -210.55,-333.38 -317.4,-717.13 -317.4,-1142.94 0,-614.09 218.72,-1066.27 669.62,-1383.68 256.43,-181.88 547.01,-274.14 864.66,-274.14 432.53,0 801.71,154.96 1097.42,459.67 91.87,94.58 183.12,219.07 285.95,388.94 3.32,434.4 5.12,795.32 5.12,1135.27 0,517.85 -14.78,1037.08 -30.82,1523.04zm342.54 -1907.04c0,-298.35 1.65,-545.95 5.9,-778.48 9.79,-467.84 20.04,-1238.2 20.04,-1718.19l0 -87.97 -342.78 0 0 223.63c1.87,229.29 5.12,744.03 5.12,973.59 0,54.33 0,108.69 -0.63,162.35 -29.98,-33.68 -57.19,-62.6 -84.44,-90.06 -364.45,-373.89 -805.71,-563.66 -1310.83,-563.66 -369.68,0 -710.31,105.82 -1012.3,314.29 -275.45,192.39 -493.96,453.84 -649.94,777.46 -148.56,303.27 -224.41,627.03 -224.41,961.15 0,454.86 128.77,868.8 383.01,1229.46 202.46,288.17 462.08,508.77 771.88,655.07 144.07,67.47 277.43,109.32 407.96,127.85 88.92,12.86 181.96,17.35 262.5,20.25 146.55,6.18 290.62,7.24 399.94,7.24l518.49 0 877.73 -3.92 -2.11 -113.75c-12.65,-686.87 -25.13,-1397.74 -25.13,-2096.31z"/>
  <path class="fil2" d="M23882.82 6038.53c-23.72,-13.22 -61.68,-19.83 -113.99,-19.83l-80.37 0 0 193.06 85.07 0c39.84,0 69.77,-3.96 89.67,-11.91 36.76,-14.53 55.18,-42.31 55.18,-83.27 0,-38.81 -11.84,-64.82 -35.56,-78.05zm-101.58 -83.94c66.24,0 114.84,6.39 145.77,19.16 55.21,22.97 82.82,67.97 82.82,135.02 0,47.64 -17.36,82.74 -52.1,105.22 -18.49,11.91 -44.22,20.54 -77.17,25.8 41.71,6.65 72.29,24.04 91.62,52.21 19.34,28.17 29.06,55.71 29.06,82.53l0 38.95c0,12.37 0.39,25.55 1.31,39.63 0.84,14.1 2.4,23.35 4.63,27.74l3.29 6.61 -88.12 0c-0.46,-1.77 -0.88,-3.51 -1.3,-5.27 -0.46,-1.77 -0.88,-3.75 -1.34,-5.94l-1.98 -17.14 0 -42.16c0,-61.51 -16.79,-102.16 -50.33,-121.94 -19.91,-11.42 -54.79,-17.14 -104.7,-17.14l-74.22 0 0 209.6 -94.09 0 0 -532.87 186.87 0zm-286.26 -27.11c-81.26,81.55 -121.9,180.05 -121.9,295.53 0,116.35 40.43,215.53 121.26,297.54 81.27,81.96 180.02,122.97 296.17,122.97 116.17,0 214.9,-41.01 296.19,-122.97 81.23,-82.01 121.91,-181.19 121.91,-297.54 0,-115.48 -40.69,-213.98 -121.91,-295.53 -81.75,-82.01 -180.47,-123.01 -296.19,-123.01 -115.3,0 -213.81,41 -295.53,123.01zm640.07 639.33c-95,95.19 -209.84,142.8 -344.54,142.8 -134.74,0 -249.37,-47.61 -343.88,-142.8 -94.09,-94.76 -141.14,-209.59 -141.14,-344.47 0,-133.54 47.51,-247.71 142.44,-342.47 94.55,-94.34 208.75,-141.49 342.58,-141.49 134.7,0 249.54,47.15 344.54,141.49 94.94,94.34 142.44,208.47 142.44,342.47 0,134.45 -47.5,249.26 -142.44,344.47z"/>
 </g>
</svg>
